# xmcd
#
# Track frame offsets:
#	150
#	26599
#	46853
#	69499
#	93438
#	116887
#	154411
#	184753
#	207789
#	251676
#	268703
#	295144
#
# Disc length: 4113 seconds
#
# Revision: 1
# Processed by: cddbd v1.5PL3 Copyright (c) Steve Scherf et al.
# Submitted via: dBpowerAMP V4.0
#
DISCID=ae100f0c
DTITLE=Dj Psykopath - KiSs_mE_WhErE_It_sMeLlS_FuNnY
DYEAR=1900
DGENRE=Psychadelic
TTITLE0=Soul of the Earth
TTITLE1=Joking (Final mix)
TTITLE2=Psyko Brain Dead (P.B.D.)
TTITLE3=Summer Feelin'
TTITLE4=Head Pie (Final mix)
TTITLE5=Kick it out in Space (Psyko mix)
TTITLE6=Dark Ambient Wave
TTITLE7=Pig Fish
TTITLE8=Hell Frozen
TTITLE9=Kick it out in Space (early version)
TTITLE10=Soul of the Earth (new mix)
TTITLE11=Joiking (Unmixed)
EXTD=Norwegian artist
EXTT0=
EXTT1=
EXTT2=
EXTT3=
EXTT4=
EXTT5=
EXTT6=
EXTT7=
EXTT8=
EXTT9=
EXTT10=
EXTT11=
PLAYORDER=
